<svg width="1215" height="368" viewBox="0 0 1215 368" fill="none" xmlns="http://www.w3.org/2000/svg">
<path d="M1212.84 305.09C1217.5 285.298 1214.56 264.488 1204.58 246.743C1194.59 228.998 1178.3 215.599 1158.88 209.176C1139.47 202.752 1118.34 203.769 1099.64 212.025C1080.94 220.281 1066.03 235.181 1057.82 253.801C1049.61 272.421 1048.7 293.417 1055.27 312.668C1061.84 331.92 1075.41 348.037 1093.33 357.858C1111.24 367.679 1132.21 370.493 1152.11 365.75C1172 361.006 1189.4 349.047 1200.88 332.219L1162.76 306.563C1157.73 313.947 1150.09 319.195 1141.36 321.277C1132.63 323.358 1123.43 322.123 1115.57 317.814C1107.71 313.504 1101.75 306.431 1098.87 297.983C1095.98 289.535 1096.38 280.322 1099.99 272.151C1103.59 263.98 1110.13 257.441 1118.34 253.818C1126.55 250.195 1135.82 249.749 1144.34 252.568C1152.86 255.387 1160.01 261.266 1164.39 269.053C1165.02 270.185 1165.6 271.345 1166.1 272.529H1128.27C1128.27 290.533 1142.97 305.128 1161.09 305.128H1212.66V305.048L1212.84 305.09Z" fill="#23A1DB"/>
<path d="M982.949 314.443C982.949 344.022 1007.09 368 1036.86 368L1036.86 258.557C1036.86 228.978 1012.72 205 982.949 205L982.949 314.443Z" fill="#23A1DB"/>
<path d="M968.885 368C939.111 368 914.974 344.022 914.974 314.443L914.974 205C944.749 205 968.885 228.978 968.885 258.557L968.885 368Z" fill="#23A1DB"/>
<path d="M847 314.443C847 344.022 871.137 368 900.911 368L900.911 258.557C900.911 228.978 876.774 205 847 205L847 314.443Z" fill="#23A1DB"/>
<path fill-rule="evenodd" clip-rule="evenodd" d="M109.977 0C49.2384 0 0 48.6703 0 108.708V217.416H109.977C170.716 217.416 219.954 168.746 219.954 108.708C219.954 48.6703 170.716 0 109.977 0ZM109.977 66.8973C86.616 66.8973 67.6782 85.6166 67.6782 108.708V150.519H109.977C133.338 150.519 152.276 131.8 152.276 108.708C152.276 85.6166 133.338 66.8973 109.977 66.8973Z" fill="#23A1DB"/>
<path fill-rule="evenodd" clip-rule="evenodd" d="M286.786 259.292C286.786 199.254 237.548 150.584 176.809 150.584H66.832V259.292C66.832 319.33 116.07 368 176.809 368C237.548 368 286.786 319.33 286.786 259.292ZM219.108 259.292C219.108 236.201 200.17 217.481 176.809 217.481H134.51V259.292C134.51 282.383 153.448 301.103 176.809 301.103C200.17 301.103 219.108 282.383 219.108 259.292Z" fill="#2B638E"/>
<ellipse cx="176.809" cy="259.292" rx="29.6092" ry="29.1862" fill="#A5D1B0"/>
<path fill-rule="evenodd" clip-rule="evenodd" d="M429 368C500.797 368 559 309.797 559 238C559 166.203 500.797 108 429 108C357.203 108 299 166.203 299 238C299 309.797 357.203 368 429 368ZM408.557 323.713C449.734 333.367 492.153 302.637 503.304 255.075C512.154 217.326 432.266 206.704 432.266 206.704L448.936 151.479C407.759 141.826 365.34 172.556 354.19 220.117C343.039 267.678 367.38 314.06 408.557 323.713Z" fill="#A5D1B0"/>
<path fill-rule="evenodd" clip-rule="evenodd" d="M489 358.851C537.039 339.754 571 292.843 571 238C571 183.157 537.039 136.246 489 117.149C503.85 111.245 520.046 108 537 108C608.797 108 667 166.203 667 238C667 309.797 608.797 368 537 368C520.046 368 503.85 364.755 489 358.851Z" fill="#23A1DB"/>
<path fill-rule="evenodd" clip-rule="evenodd" d="M683 82C683 44.4446 713.445 14 751 14V300C751 337.555 720.555 368 683 368V82ZM763 139C763 101.445 793.445 71 831 71V126C831 163.555 800.555 194 763 194V139ZM763 300C763 337.555 793.445 368 831 368V266C831 228.445 800.555 198 763 198V300Z" fill="#2B638E"/>
</svg>
