<svg width="287" height="368" viewBox="0 0 287 368" fill="none" xmlns="http://www.w3.org/2000/svg">
<path fill-rule="evenodd" clip-rule="evenodd" d="M109.977 0C49.2384 0 0 48.6703 0 108.708V217.416H109.977C170.716 217.416 219.954 168.746 219.954 108.708C219.954 48.6703 170.716 0 109.977 0ZM109.977 66.8973C86.616 66.8973 67.6782 85.6166 67.6782 108.708V150.519H109.977C133.338 150.519 152.276 131.8 152.276 108.708C152.276 85.6166 133.338 66.8973 109.977 66.8973Z" fill="#23A1DB"/>
<path fill-rule="evenodd" clip-rule="evenodd" d="M286.786 259.292C286.786 199.254 237.548 150.584 176.809 150.584H66.832V259.292C66.832 319.33 116.07 368 176.809 368C237.548 368 286.786 319.33 286.786 259.292ZM219.108 259.292C219.108 236.201 200.17 217.481 176.809 217.481H134.51V259.292C134.51 282.384 153.448 301.103 176.809 301.103C200.17 301.103 219.108 282.384 219.108 259.292Z" fill="#2B638E"/>
<ellipse cx="176.809" cy="259.292" rx="29.6092" ry="29.1862" fill="#A5D1B0"/>
</svg>
