  <svg xmlns="http://www.w3.org/2000/svg" width="156" height="156" viewBox="0 0 156 156" fill="none">
  <g filter="url(#filter0_d_148_589)">
    <rect x="34" y="34" width="88" height="88" rx="33" fill="white"/>
    <path fill-rule="evenodd" clip-rule="evenodd" d="M78.8446 49C69.516 49 61.9536 56.5623 61.9536 65.891V82.782H78.8446C88.1732 82.782 95.7356 75.2196 95.7356 65.891C95.7356 56.5623 88.1732 49 78.8446 49ZM78.8446 59.3944C75.2567 59.3944 72.3481 62.303 72.3481 65.891V72.3875H78.8446C82.4325 72.3875 85.3411 69.4789 85.3411 65.891C85.3411 62.303 82.4325 59.3944 78.8446 59.3944Z" fill="#23A1DB"/>
    <path fill-rule="evenodd" clip-rule="evenodd" d="M106 89.2785C106 79.9499 98.4377 72.3875 89.1091 72.3875H72.2181V89.2785C72.2181 98.6072 79.7805 106.169 89.1091 106.169C98.4377 106.169 106 98.6072 106 89.2785ZM95.6056 89.2785C95.6056 85.6906 92.6971 82.782 89.1091 82.782H82.6126V89.2785C82.6126 92.8665 85.5212 95.7751 89.1091 95.7751C92.6971 95.7751 95.6056 92.8665 95.6056 89.2785Z" fill="#2B638E"/>
    <path d="M70.2792 90.3159C70.538 89.2115 70.3746 88.0503 69.8213 87.0601C69.268 86.07 68.3646 85.3223 67.2885 84.9639C66.2123 84.6055 65.0411 84.6622 64.0046 85.1229C62.9681 85.5836 62.1411 86.415 61.686 87.454C61.2309 88.4929 61.1806 89.6645 61.5448 90.7387C61.909 91.8129 62.6614 92.7122 63.6546 93.2602C64.6477 93.8082 65.8098 93.9652 66.9127 93.7006C68.0157 93.4359 68.9799 92.7686 69.6162 91.8296L67.5036 90.398C67.2243 90.8101 66.8012 91.1029 66.3172 91.219C65.8332 91.3352 65.3233 91.2663 64.8875 91.0258C64.4516 90.7853 64.1214 90.3907 63.9616 89.9193C63.8018 89.4479 63.8239 88.9338 64.0236 88.4779C64.2233 88.0219 64.5862 87.6571 65.041 87.4549C65.4959 87.2528 66.0099 87.2279 66.4821 87.3852C66.9543 87.5425 67.3508 87.8705 67.5936 88.305C67.6289 88.3682 67.6605 88.4329 67.6886 88.4989H65.5917C65.5917 89.5036 66.4061 90.318 67.4107 90.318H70.2692V90.3135L70.2792 90.3159Z" fill="#23A1DB"/>
    <path d="M57.536 90.8377C57.536 92.4881 58.8739 93.8261 60.5244 93.8261L60.5244 87.7194C60.5244 86.0689 59.1864 84.731 57.536 84.731L57.536 90.8377Z" fill="#23A1DB"/>
    <path d="M56.7564 93.8261C55.1059 93.8261 53.768 92.4881 53.768 90.8377L53.768 84.731C55.4184 84.731 56.7564 86.0689 56.7564 87.7194L56.7564 93.8261Z" fill="#23A1DB"/>
    <path d="M50 90.8377C50 92.4881 51.338 93.8261 52.9884 93.8261L52.9884 87.7194C52.9884 86.0689 51.6505 84.731 50 84.731L50 90.8377Z" fill="#23A1DB"/>
    <circle cx="89.109" cy="89.2785" r="4.54757" fill="#A5D1B0"/>
  </g>
  <defs>
    <filter id="filter0_d_148_589" x="0" y="0" width="156" height="156" filterUnits="userSpaceOnUse" color-interpolation-filters="sRGB">
      <feFlood flood-opacity="0" result="BackgroundImageFix"/>
      <feColorMatrix in="SourceAlpha" type="matrix" values="0 0 0 0 0 0 0 0 0 0 0 0 0 0 0 0 0 0 127 0" result="hardAlpha"/>
      <feMorphology radius="6" operator="erode" in="SourceAlpha" result="effect1_dropShadow_148_589"/>
      <feOffset/>
      <feGaussianBlur stdDeviation="20"/>
      <feComposite in2="hardAlpha" operator="out"/>
      <feColorMatrix type="matrix" values="0 0 0 0 0.137255 0 0 0 0 0.631373 0 0 0 0 0.858824 0 0 0 0.3 0"/>
      <feBlend mode="normal" in2="BackgroundImageFix" result="effect1_dropShadow_148_589"/>
      <feBlend mode="normal" in="SourceGraphic" in2="effect1_dropShadow_148_589" result="shape"/>
    </filter>
  </defs>
</svg>